<svg xmlns="http://www.w3.org/2000/svg" enable-background="new 0 0 512 512" viewBox="0 0 512 512" id="apps">
  <path fill="#8bdec5" d="M350.626,14.474H161.374c-35.066,0-63.594,28.528-63.594,63.594v355.865c0,35.065,28.528,63.594,63.594,63.594
		h189.252c35.066,0,63.595-28.528,63.595-63.594V78.067C414.221,43.001,385.692,14.474,350.626,14.474z M301,443.533h-90
		c-28.949,0-52.5-23.552-52.5-52.5s23.551-52.5,52.5-52.5h90c28.948,0,52.5,23.552,52.5,52.5S329.948,443.533,301,443.533z
		 M322.466,293.575c-2.2,4.72-6.108,8.301-11.003,10.083c-2.177,0.792-4.433,1.187-6.682,1.187c-2.809,0-5.606-0.615-8.229-1.837
		c0,0,0,0-0.001,0l-54.303-25.322l-26.801,12.498c-2.658,1.238-5.456,1.825-8.211,1.825c-7.349,0-14.398-4.171-17.703-11.257
		l-52.193-111.93c-4.544-9.746-0.312-21.371,9.432-25.914l90.404-42.156c9.744-4.543,21.37-0.313,25.914,9.432l0.818,1.753
		c3.691-0.519,7.456,0.026,10.915,1.639l90.404,42.156c9.744,4.544,13.976,16.168,9.433,25.913L322.466,293.575z M265.479,54.474
		c0,5.523-4.477,10-10,10s-10.005-4.477-10.005-10s4.472-10,9.995-10h0.01C261.002,44.474,265.479,48.951,265.479,54.474z"></path>
  <path fill="#ebe287" d="M365.228,155.732l-90.404-42.156c-3.459-1.613-7.224-2.157-10.915-1.639l19.805,42.472l45.937,21.421
		c5.005,2.334,7.171,8.284,4.837,13.289l-17.681,37.916c1.362,7.901-2.28,16.039-9.406,20.172l-5.032,10.792
		c-1.121,2.403-3.151,4.264-5.644,5.17c-2.489,0.907-5.24,0.788-7.646-0.333l-7.492-3.494l-39.337,18.344l54.303,25.322
		c0.001,0,0.001,0,0.001,0c2.622,1.222,5.42,1.837,8.229,1.837c2.249,0,4.505-0.395,6.682-1.187
		c4.895-1.782,8.803-5.363,11.003-10.083l52.194-111.93C379.203,171.901,374.972,160.276,365.228,155.732z"></path>
  <path fill="#f5f5fc" d="M281.587 259.342l7.492 3.494c2.407 1.121 5.157 1.24 7.646.333 2.492-.906 4.522-2.767 5.644-5.17l5.032-10.792c-.501.291-1.013.57-1.548.82L281.587 259.342zM315.285 222.113c.747 1.603 1.235 3.258 1.522 4.923l17.681-37.916c2.334-5.005.168-10.955-4.837-13.289l-45.937-21.421L315.285 222.113z"></path>
  <path fill="#ff5384" d="M281.587,259.342l24.266-11.316c0.535-0.25,1.047-0.529,1.548-0.82c7.126-4.133,10.768-12.271,9.406-20.172
		c-0.287-1.665-0.774-3.32-1.522-4.923l-31.571-67.704l-19.805-42.472l-0.818-1.753c-4.544-9.745-16.17-13.975-25.914-9.432
		l-90.404,42.156c-9.745,4.543-13.976,16.168-9.432,25.914l52.193,111.93c3.305,7.086,10.354,11.257,17.703,11.257
		c2.755,0,5.553-0.587,8.211-1.825l26.801-12.498L281.587,259.342z M247.226,146.408c2.334,5.005,0.168,10.955-4.837,13.289
		l-53.812,25.093c-1.367,0.638-2.805,0.939-4.22,0.939c-3.766,0-7.373-2.138-9.069-5.776c-2.334-5.005-0.168-10.955,4.837-13.289
		l53.812-25.093C238.942,139.236,244.892,141.402,247.226,146.408z M200.03,207.723c-2.334-5.005-0.168-10.955,4.837-13.289
		l34.439-16.059c5.005-2.334,10.956-0.168,13.289,4.837c2.334,5.005,0.168,10.955-4.837,13.289l-34.439,16.059
		c-1.367,0.638-2.805,0.939-4.22,0.939C205.333,213.5,201.727,211.362,200.03,207.723z"></path>
  <path fill="#f5f5fc" d="M233.937 141.571l-53.812 25.093c-5.005 2.334-7.171 8.284-4.837 13.289 1.697 3.639 5.303 5.776 9.069 5.776 1.415 0 2.853-.302 4.22-.939l53.812-25.093c5.005-2.334 7.171-8.284 4.837-13.289C244.892 141.402 238.942 139.236 233.937 141.571zM213.319 212.56l34.439-16.059c5.005-2.334 7.171-8.284 4.837-13.289-2.333-5.005-8.284-7.171-13.289-4.837l-34.439 16.059c-5.005 2.334-7.171 8.284-4.837 13.289 1.697 3.639 5.303 5.776 9.069 5.776C210.514 213.5 211.952 213.198 213.319 212.56z"></path>
  <path fill="#636677" d="M255.469,44.474c-5.522,0-9.995,4.477-9.995,10s4.482,10,10.005,10s10-4.477,10-10s-4.477-10-10-10H255.469z"></path>
  <path fill="#f5f5fc" d="M301,338.533h-90c-28.949,0-52.5,23.552-52.5,52.5s23.551,52.5,52.5,52.5h90c28.948,0,52.5-23.552,52.5-52.5
		S329.948,338.533,301,338.533z"></path>
</svg>
